<svg width="604" height="397" viewBox="0 0 604 397" fill="none" xmlns="http://www.w3.org/2000/svg">
    <path fill-rule="evenodd" clip-rule="evenodd"
        d="M169.13 158.78C165.735 142.881 158.326 128.31 151.156 114.208L151.06 114.02C150.339 112.603 149.614 111.193 148.891 109.785L148.889 109.782L148.885 109.773L148.884 109.772C145.275 102.75 141.696 95.7849 138.74 88.3C138.58 87.89 138.07 87.61 137.49 87.61C136.91 87.61 136.41 87.89 136.24 88.3C133.28 95.7751 129.704 102.732 126.1 109.745L126.099 109.746L126.099 109.747L126.098 109.748C125.368 111.168 124.637 112.591 123.91 114.02L123.883 114.073L123.883 114.074C116.691 128.217 109.256 142.84 105.85 158.78C102.22 175.76 103.62 192.6 110.12 210.19C110.456 210.376 110.72 210.526 111.011 210.691L111.132 210.76L111.38 210.9H163.6C163.936 210.714 164.2 210.564 164.491 210.399C164.608 210.333 164.729 210.264 164.86 210.19C171.36 192.6 172.76 175.75 169.13 158.78ZM129.56 89.65C130.04 89.65 130.39 89.99 130.25 90.33V90.34C126.885 98.7226 122.878 106.722 118.895 114.674L118.894 114.674C104.959 142.494 91.3136 169.735 106.44 210.79C106.46 210.83 106.49 210.92 106.49 210.92H74.1L74.0838 210.899L74.0575 210.865C74.0376 210.839 74.0172 210.813 74 210.79C66.2 201.49 61.65 192.66 60.1 183.83C58.66 175.64 59.85 167.6 63.75 159.26C71.1075 143.507 87.285 128.959 102.94 114.882L103.02 114.81C104.932 113.09 106.777 111.456 108.569 109.869C116.019 103.271 122.533 97.5018 128.95 89.9C129.08 89.74 129.31 89.65 129.56 89.65ZM448.47 100.06C449.12 100.06 449.74 100.35 450.17 100.84C466.493 119.922 487.696 138.247 508.985 156.647C573.512 212.417 638.835 268.875 571.5 349.18H530.45C577.93 268.859 531.861 212.392 486.358 156.62C472.059 139.094 457.816 121.637 446.55 103.53C445.61 102.01 446.69 100.06 448.47 100.06ZM415.95 100.42C417.76 100.42 418.85 102.41 417.89 103.94V103.93C406.663 121.905 392.521 139.242 378.325 156.647C333.485 211.62 288.1 267.262 332.29 345.76C333.15 347.28 332.05 349.17 330.3 349.17H294.28C293.59 349.17 292.94 348.87 292.5 348.34C226.325 268.477 291.426 212.216 355.734 156.64C376.885 138.361 397.95 120.156 414.23 101.21C414.66 100.71 415.29 100.42 415.95 100.42ZM421.89 111.84C422.09 111.17 421.58 110.5 420.89 110.5C420.53 110.5 420.2 110.68 420.01 110.99C410.706 126.009 401.271 137.402 390.47 150.445L390.469 150.445L390.469 150.445L390.468 150.447L390.449 150.47C387.894 153.554 385.264 156.731 382.54 160.07L382.479 160.145C359.838 187.902 336.43 216.598 325.79 247.65C320.16 264.09 318.43 279.92 320.51 296.06C322.75 313.45 329.32 330.86 340.59 349.18L340.6 349.196C340.61 349.212 340.62 349.229 340.63 349.245L340.664 349.304L340.665 349.305C340.678 349.326 340.69 349.347 340.702 349.368C340.715 349.389 340.727 349.41 340.74 349.43H387.55C387.53 349.35 387.5 349.26 387.48 349.18C365.616 268.273 385.338 214.596 405.482 159.77C411.237 144.108 417.026 128.352 421.89 111.84ZM452.002 158.644C462.399 186.508 473.147 215.313 478.07 246.73H478.08C483.32 280.18 481.3 313.36 471.91 348.03L470.957 348.759L470.655 348.99L470.08 349.43H394.63L393.729 348.741L392.8 348.03C383.4 313.37 381.39 280.18 386.63 246.73C391.546 215.36 402.268 186.595 412.641 158.77L412.73 158.53C413.788 155.694 414.852 152.872 415.915 150.054C421.117 136.256 426.282 122.558 430.55 107.86C430.78 107.05 431.51 106.5 432.35 106.5C433.19 106.5 433.92 107.06 434.15 107.86C438.434 122.611 443.613 136.354 448.832 150.202L448.832 150.202L448.832 150.203L448.832 150.203C449.875 152.972 450.92 155.744 451.96 158.53L452.002 158.644ZM538.91 247.65C528.269 216.598 504.862 187.901 482.221 160.145L482.16 160.07C478.269 155.303 474.494 150.866 470.827 146.556L470.826 146.554C461.056 135.07 452.056 124.492 443.68 110.99C443.49 110.69 443.16 110.5 442.81 110.5C442.12 110.5 441.62 111.17 441.81 111.83C446.784 128.724 452.78 144.828 458.745 160.849C479.018 215.301 498.939 268.808 477.22 349.18C477.2 349.26 477.17 349.35 477.15 349.43H523.96C524.01 349.35 524.06 349.26 524.11 349.18C535.38 330.86 541.95 313.45 544.19 296.06C546.27 279.92 544.54 264.09 538.91 247.65ZM171.989 114.826C187.66 128.918 203.865 143.49 211.23 159.25H211.24C215.13 167.59 216.33 175.63 214.89 183.82C213.34 192.65 208.79 201.48 200.99 210.78C200.983 210.79 200.973 210.803 200.962 210.816L200.944 210.84C200.917 210.876 200.89 210.91 200.89 210.91H168.5C168.52 210.87 168.54 210.82 168.55 210.78C183.578 169.992 169.79 142.833 155.76 115.199C151.632 107.067 147.482 98.8937 144.04 90.32C143.9 89.98 144.25 89.64 144.73 89.64C144.97 89.64 145.2 89.74 145.33 89.89C151.118 96.7387 157.339 102.1 164.092 107.92C166.637 110.113 169.258 112.372 171.96 114.8L171.989 114.826ZM603.89 396.15H0L4 376.49H71V316.5V257.78H133V376.49H141V257.78H203V314.5V376.49H292.94V356.82H571.64V376.49H597.16L603.89 396.15ZM58 216H137H216L211.605 252H137H62.3947L58 216Z"
        fill="url(#paint0_linear_1_3)" />
    <path
        d="M420.17 48.13C418 38.26 419.75 28.45 424.39 20.32C425.52 18.34 423.52 16.07 421.41 16.93C403.27 24.33 392.88 44.48 398.64 64.26C404.2 83.35 423.62 95.34 443.18 91.82C450.29 90.54 456.57 87.44 461.66 83.09C463.38 81.63 462.3 78.79 460.05 78.88C441.41 79.65 424.33 66.99 420.18 48.14L420.17 48.13Z"
        fill="#B197D9" />
    <path
        d="M131.9 53.68C130.64 47.94 131.66 42.23 134.36 37.5C135.02 36.35 133.85 35.02 132.62 35.53C122.06 39.84 116.02 51.56 119.37 63.07C122.72 74.58 133.9 81.15 145.29 79.1C149.43 78.35 153.08 76.55 156.04 74.02C157.04 73.17 156.41 71.52 155.1 71.57C144.25 72.02 134.32 64.65 131.9 53.68Z"
        fill="#B197D9" />
    <path
        d="M321.53 41.43C321.53 54.25 311.13 64.65 298.31 64.65H242.58C229.75 64.65 219.35 54.25 219.35 41.43C219.35 37.33 220.41 33.47 222.28 30.12C226.25 23.01 233.85 18.21 242.57 18.21C245.96 18.21 249.18 18.94 252.08 20.24C253.63 8.92999 263.34 0.209991 275.08 0.209991C286.11 0.209991 295.34 7.89999 297.71 18.21C297.9 18.21 298.1 18.21 298.3 18.21C307.02 18.21 314.61 23.01 318.59 30.12C320.46 33.46 321.52 37.32 321.52 41.43H321.53Z"
        fill="url(#paint1_linear_1_3)" />
    <defs>
        <linearGradient id="paint0_linear_1_3" x1="138.5" y1="100.831" x2="149.93" y2="395.74"
            gradientUnits="userSpaceOnUse">
            <stop stop-color="#E4D4F8" />
            <stop offset="1" stop-color="#B197D9" />
        </linearGradient>
        <linearGradient id="paint1_linear_1_3" x1="270.44" y1="3.31119" x2="268" y2="65"
            gradientUnits="userSpaceOnUse">
            <stop stop-color="#B197D9" />
            <stop offset="1" stop-color="#E4D4F8" />
        </linearGradient>
    </defs>
</svg>
