<svg width="158" height="362" viewBox="0 0 158 362" fill="none" xmlns="http://www.w3.org/2000/svg">
    <path
        d="M72.25 54.9121C72.39 54.5721 72.04 54.2321 71.56 54.2321C71.31 54.2321 71.08 54.3221 70.95 54.4821C62.99 63.9121 54.88 70.5221 45.02 79.3921C29.34 93.4921 13.12 108.062 5.74995 123.842C1.84995 132.182 0.659953 140.222 2.09995 148.412C3.64995 157.242 8.19995 166.072 16 175.372C16.03 175.412 16.07 175.462 16.1 175.502H48.49C48.49 175.502 48.46 175.412 48.44 175.372C28.99 122.582 57.11 92.6321 72.25 54.9221V54.9121Z"
        fill="white" />
    <path
        d="M111.13 123.362C107.72 107.392 100.26 92.7621 93.06 78.6021C88.74 70.1121 84.29 61.8721 80.74 52.8821C80.58 52.4721 80.07 52.1921 79.49 52.1921C78.91 52.1921 78.41 52.4721 78.24 52.8821C74.68 61.8721 70.23 70.1121 65.91 78.6021C58.71 92.7621 51.26 107.402 47.85 123.362C44.22 140.342 45.62 157.182 52.12 174.772C52.59 175.032 52.92 175.222 53.38 175.482H105.6C106.07 175.222 106.4 175.032 106.86 174.772C113.36 157.182 114.76 140.332 111.13 123.362Z"
        fill="white" />
    <path
        d="M153.23 123.832C145.86 108.062 129.64 93.4821 113.96 79.3821C104.09 70.5121 95.2999 63.9021 87.3299 54.4721C87.1999 54.3221 86.9699 54.2221 86.7299 54.2221C86.2499 54.2221 85.8999 54.5621 86.0399 54.9021C101.18 92.6121 130 122.572 110.55 175.362C110.54 175.402 110.52 175.452 110.5 175.492H142.89C142.89 175.492 142.96 175.402 142.99 175.362C150.79 166.062 155.34 157.232 156.89 148.402C158.33 140.212 157.13 132.172 153.24 123.832H153.23Z"
        fill="white" />
    <path
        d="M73.9 18.2621C72.64 12.5221 73.66 6.81212 76.36 2.08212C77.02 0.932124 75.85 -0.397877 74.62 0.112123C64.06 4.42212 58.02 16.1421 61.37 27.6521C64.72 39.1621 75.9 45.7321 87.29 43.6821C91.43 42.9321 95.08 41.1321 98.04 38.6021C99.04 37.7521 98.41 36.1021 97.1 36.1521C86.25 36.6021 76.32 29.2321 73.9 18.2621Z"
        fill="white" />
    <path d="M79 180.582H0L4.39474 216.582H79H153.605L158 180.582H79Z" fill="white" />
    <rect x="14" y="221.582" width="60" height="140" fill="white" />
    <rect x="84" y="221.582" width="60" height="140" fill="white" />
</svg>
