<svg width="336" height="360" viewBox="0 0 336 360" fill="none" xmlns="http://www.w3.org/2000/svg">
    <path fill-rule="evenodd" clip-rule="evenodd"
        d="M156.17 31.3873C154 21.5173 155.75 11.7073 160.39 3.57727C161.52 1.59727 159.52 -0.672734 157.41 0.187266C139.27 7.58727 128.88 27.7373 134.64 47.5173C140.2 66.6073 159.62 78.5973 179.18 75.0773C186.29 73.7973 192.57 70.6973 197.66 66.3473C199.38 64.8873 198.3 62.0473 196.05 62.1373C177.41 62.9073 160.33 50.2473 156.18 31.3973L156.17 31.3873ZM186.17 84.0973C185.74 83.6073 185.12 83.3173 184.47 83.3173C182.69 83.3173 181.61 85.2673 182.55 86.7873C193.816 104.894 208.059 122.351 222.357 139.877L222.358 139.877C267.861 195.65 313.93 252.117 266.45 332.437H307.5C374.835 252.132 309.512 195.675 244.985 139.904C223.696 121.504 202.493 103.179 186.17 84.0973ZM153.89 87.1973C154.85 85.6673 153.76 83.6773 151.95 83.6773C151.29 83.6773 150.66 83.9673 150.23 84.4673C133.95 103.413 112.885 121.618 91.7337 139.897C27.4259 195.473 -37.6751 251.734 28.5 331.597C28.94 332.127 29.59 332.427 30.28 332.427H66.3C68.05 332.427 69.15 330.537 68.29 329.017C24.1002 250.519 69.4849 194.878 114.325 139.904C128.521 122.499 142.663 105.162 153.89 87.1873V87.1973ZM156.89 93.7573C157.58 93.7573 158.09 94.4273 157.89 95.0973C153.026 111.609 147.237 127.365 141.482 143.027C121.338 197.853 101.616 251.53 123.48 332.437C123.49 332.477 123.502 332.519 123.515 332.562L123.515 332.562L123.515 332.563L123.529 332.609C123.536 332.636 123.544 332.662 123.55 332.687H76.74C76.7209 332.657 76.7018 332.625 76.6827 332.592L76.6653 332.563C76.6402 332.52 76.6151 332.477 76.59 332.437C65.32 314.117 58.75 296.707 56.51 279.317C54.43 263.177 56.16 247.347 61.79 230.907C72.4304 199.855 95.8378 171.159 118.479 143.402L118.54 143.327C121.271 139.979 123.908 136.795 126.469 133.703L126.469 133.703L126.469 133.702L126.47 133.702C137.271 120.659 146.706 109.266 156.01 94.2473C156.2 93.9373 156.53 93.7573 156.89 93.7573ZM188.003 141.901L188.003 141.901L187.96 141.787C186.92 139.002 185.876 136.229 184.832 133.461C179.613 119.612 174.434 105.868 170.15 91.1173C169.92 90.3173 169.19 89.7573 168.35 89.7573C167.51 89.7573 166.78 90.3073 166.55 91.1173C162.282 105.815 157.117 119.513 151.915 133.311L151.915 133.311L151.915 133.312L151.914 133.313C150.852 136.131 149.788 138.952 148.73 141.787L148.641 142.027L148.641 142.027C138.268 169.853 127.546 198.617 122.63 229.987C117.39 263.437 119.4 296.627 128.8 331.287L129.708 331.982L130.63 332.687H206.08L206.36 332.473L207.243 331.797L207.91 331.287C217.3 296.617 219.32 263.437 214.08 229.987H214.07C209.147 198.57 198.399 169.766 188.003 141.901ZM218.221 143.402C240.862 171.159 264.27 199.855 274.91 230.907C280.54 247.347 282.27 263.177 280.19 279.317C277.95 296.707 271.38 314.117 260.11 332.437C260.06 332.517 260.01 332.607 259.96 332.687H213.15C213.17 332.607 213.2 332.517 213.22 332.437C234.939 252.066 215.018 198.559 194.745 144.107L194.745 144.106L194.745 144.106C188.78 128.085 182.784 111.981 177.81 95.0873C177.62 94.4273 178.12 93.7573 178.81 93.7573C179.16 93.7573 179.49 93.9473 179.68 94.2473C188.056 107.749 197.056 118.328 206.825 129.811C210.493 134.121 214.268 138.559 218.16 143.327L218.221 143.402ZM307.5 340.257H29V359.757H307.5V340.257Z"
        fill="url(#paint0_linear_14_14)" />
    <defs>
        <linearGradient id="paint0_linear_14_14" x1="160.5" y1="3.5" x2="163.5" y2="355"
            gradientUnits="userSpaceOnUse">
            <stop stop-color="#E0C9F7" stop-opacity="0.8" />
            <stop offset="1" stop-color="#E9D3FF" stop-opacity="0.5" />
        </linearGradient>
    </defs>
</svg>
