<svg width="336" height="360" viewBox="0 0 336 360" fill="none" xmlns="http://www.w3.org/2000/svg">
    <path
        d="M153.89 87.1973C154.85 85.6673 153.76 83.6773 151.95 83.6773C151.29 83.6773 150.66 83.9673 150.23 84.4673C84.45 161.017 -59.44 225.467 28.5 331.597C28.94 332.127 29.59 332.427 30.28 332.427H66.2999C68.0499 332.427 69.15 330.537 68.29 329.017C10.11 225.667 107.2 161.937 153.89 87.1873V87.1973Z"
        fill="#C8AEEE" />
    <path
        d="M186.17 84.0973C185.74 83.6073 185.12 83.3173 184.47 83.3173C182.69 83.3173 181.61 85.2673 182.55 86.7873C229.67 162.517 328.85 226.877 266.45 332.437H307.5C397.05 225.637 251.97 161.017 186.17 84.0973Z"
        fill="#C8AEEE" />
    <path
        d="M157.89 95.0973C158.09 94.4273 157.58 93.7573 156.89 93.7573C156.53 93.7573 156.2 93.9373 156.01 94.2473C144.5 112.827 132.79 125.857 118.54 143.327C95.88 171.107 72.44 199.827 61.79 230.907C56.16 247.347 54.43 263.177 56.51 279.317C58.75 296.707 65.32 314.117 76.59 332.437C76.64 332.517 76.69 332.607 76.74 332.687H123.55C123.53 332.607 123.5 332.517 123.48 332.437C95.37 228.417 136 169.407 157.89 95.0973Z"
        fill="#C8AEEE" />
    <path
        d="M214.07 229.987C209.14 198.527 198.37 169.687 187.96 141.787C181.72 125.067 175.29 108.817 170.15 91.1173C169.92 90.3173 169.19 89.7573 168.35 89.7573C167.51 89.7573 166.78 90.3073 166.55 91.1173C161.41 108.817 154.97 125.067 148.73 141.787C138.33 169.687 127.56 198.527 122.63 229.987C117.39 263.437 119.4 296.627 128.8 331.287C129.48 331.807 129.95 332.167 130.63 332.687H206.08C206.76 332.167 207.23 331.807 207.91 331.287C217.3 296.617 219.32 263.437 214.08 229.987H214.07Z"
        fill="#C8AEEE" />
    <path
        d="M274.91 230.907C264.26 199.827 240.82 171.107 218.16 143.327C203.9 125.857 191.2 112.817 179.68 94.2473C179.49 93.9473 179.16 93.7573 178.81 93.7573C178.12 93.7573 177.62 94.4273 177.81 95.0873C199.69 169.397 241.33 228.417 213.22 332.437C213.2 332.517 213.17 332.607 213.15 332.687H259.96C260.01 332.607 260.06 332.517 260.11 332.437C271.38 314.117 277.95 296.707 280.19 279.317C282.27 263.177 280.54 247.347 274.91 230.907Z"
        fill="#C8AEEE" />
    <path
        d="M156.17 31.3873C154 21.5173 155.75 11.7073 160.39 3.57727C161.52 1.59727 159.52 -0.672731 157.41 0.187269C139.27 7.58727 128.88 27.7373 134.64 47.5173C140.2 66.6073 159.62 78.5973 179.18 75.0773C186.29 73.7973 192.57 70.6973 197.66 66.3473C199.38 64.8873 198.3 62.0473 196.05 62.1373C177.41 62.9073 160.33 50.2473 156.18 31.3973L156.17 31.3873Z"
        fill="#C8AEEE" />
    <rect x="29" y="340.257" width="278.5" height="19.5" fill="#C8AEEE" />
</svg>
